<?xml version="1.0" encoding="UTF-8" standalone="no"?>
<!DOCTYPE svg PUBLIC "-//W3C//DTD SVG 1.1//EN"
 "http://www.w3.org/Graphics/SVG/1.1/DTD/svg11.dtd">
<!-- Generated by graphviz version 12.2.1 (20241206.2353)
 -->
<!-- Pages: 1 -->
<svg width="170pt" height="332pt"
 viewBox="0.00 0.00 170.25 332.00" xmlns="http://www.w3.org/2000/svg" xmlns:xlink="http://www.w3.org/1999/xlink">
<g id="graph0" class="graph" transform="scale(1 1) rotate(0) translate(4 328)">
<polygon fill="white" stroke="none" points="-4,4 -4,-328 166.25,-328 166.25,4 -4,4"/>
<!-- fetch -->
<g id="node1" class="node">
<title>fetch</title>
<polygon fill="none" stroke="black" points="102.75,-324 48.75,-324 48.75,-288 102.75,-288 102.75,-324"/>
<text text-anchor="middle" x="75.75" y="-302.45" font-family="sans-serif" font-size="14.00">fetch</text>
</g>
<!-- decode -->
<g id="node2" class="node">
<title>decode</title>
<polygon fill="none" stroke="black" points="107.75,-252 43.75,-252 43.75,-216 107.75,-216 107.75,-252"/>
<text text-anchor="middle" x="75.75" y="-230.45" font-family="sans-serif" font-size="14.00">decode</text>
</g>
<!-- fetch&#45;&gt;decode -->
<g id="edge1" class="edge">
<title>fetch&#45;&gt;decode</title>
<path fill="none" stroke="black" d="M75.75,-287.7C75.75,-280.41 75.75,-271.73 75.75,-263.54"/>
<polygon fill="black" stroke="black" points="79.25,-263.62 75.75,-253.62 72.25,-263.62 79.25,-263.62"/>
</g>
<!-- execute -->
<g id="node3" class="node">
<title>execute</title>
<polygon fill="none" stroke="black" points="75,-180 6.5,-180 6.5,-144 75,-144 75,-180"/>
<text text-anchor="middle" x="40.75" y="-158.45" font-family="sans-serif" font-size="14.00">execute</text>
</g>
<!-- decode&#45;&gt;execute -->
<g id="edge2" class="edge">
<title>decode&#45;&gt;execute</title>
<path fill="none" stroke="black" d="M67.1,-215.7C63.28,-208.07 58.71,-198.92 54.45,-190.4"/>
<polygon fill="black" stroke="black" points="57.58,-188.84 49.98,-181.46 51.32,-191.97 57.58,-188.84"/>
</g>
<!-- divide -->
<g id="node4" class="node">
<title>divide</title>
<polygon fill="none" stroke="black" points="144.25,-108 89.25,-108 89.25,-72 144.25,-72 144.25,-108"/>
<text text-anchor="middle" x="116.75" y="-86.45" font-family="sans-serif" font-size="14.00">divide</text>
</g>
<!-- decode&#45;&gt;divide -->
<g id="edge3" class="edge">
<title>decode&#45;&gt;divide</title>
<path fill="none" stroke="black" d="M80.78,-215.59C87.73,-191.5 100.36,-147.75 108.66,-119.03"/>
<polygon fill="black" stroke="black" points="111.98,-120.14 111.39,-109.57 105.25,-118.2 111.98,-120.14"/>
</g>
<!-- memory -->
<g id="node5" class="node">
<title>memory</title>
<polygon fill="none" stroke="black" points="71.5,-108 0,-108 0,-72 71.5,-72 71.5,-108"/>
<text text-anchor="middle" x="35.75" y="-86.45" font-family="sans-serif" font-size="14.00">memory</text>
</g>
<!-- execute&#45;&gt;memory -->
<g id="edge4" class="edge">
<title>execute&#45;&gt;memory</title>
<path fill="none" stroke="black" d="M39.51,-143.7C38.99,-136.41 38.37,-127.73 37.79,-119.54"/>
<polygon fill="black" stroke="black" points="41.28,-119.34 37.08,-109.61 34.3,-119.84 41.28,-119.34"/>
</g>
<!-- divide&#45;&gt;divide -->
<g id="edge5" class="edge">
<title>divide&#45;&gt;divide</title>
<path fill="none" stroke="black" d="M144.74,-103.5C154.43,-103.64 162.25,-99.14 162.25,-90 162.25,-84.86 159.78,-81.19 155.89,-78.98"/>
<polygon fill="black" stroke="black" points="156.74,-75.59 146.22,-76.83 155.22,-82.42 156.74,-75.59"/>
</g>
<!-- writeback -->
<g id="node6" class="node">
<title>writeback</title>
<polygon fill="none" stroke="black" points="116,-36 35.5,-36 35.5,0 116,0 116,-36"/>
<text text-anchor="middle" x="75.75" y="-14.45" font-family="sans-serif" font-size="14.00">writeback</text>
</g>
<!-- divide&#45;&gt;writeback -->
<g id="edge6" class="edge">
<title>divide&#45;&gt;writeback</title>
<path fill="none" stroke="black" d="M106.62,-71.7C102.05,-63.9 96.55,-54.51 91.46,-45.83"/>
<polygon fill="black" stroke="black" points="94.61,-44.27 86.53,-37.41 88.57,-47.81 94.61,-44.27"/>
</g>
<!-- memory&#45;&gt;writeback -->
<g id="edge7" class="edge">
<title>memory&#45;&gt;writeback</title>
<path fill="none" stroke="black" d="M45.64,-71.7C50.09,-63.9 55.46,-54.51 60.42,-45.83"/>
<polygon fill="black" stroke="black" points="63.3,-47.84 65.23,-37.42 57.22,-44.36 63.3,-47.84"/>
</g>
</g>
</svg>
